<?xml version="1.0" encoding="UTF-8"?><svg xmlns="http://www.w3.org/2000/svg" width="610" height="168" version="1.0" shape-rendering="geometricPrecision"><defs><style type="text/css">@font-face {
  font-family: sans-serif;
}</style><filter id="shadowBlur" x="0" y="0" width="200%" height="200%"><feOffset in="SourceGraphic" dx="3.0003002" dy="3.0003002" result="offOut"></feOffset><feGaussianBlur in="offOut" stdDeviation="3"></feGaussianBlur></filter></defs><g stroke-width="1" stroke-linecap="square" stroke-linejoin="round"><rect x="0" y="0" width="610" height="168" style="fill: #ffffff"></rect><path stroke="#000000" stroke-width="1.0" stroke-linecap="round" stroke-linejoin="round" fill="white" d="M25.0 35.0 L25.0 91.0 L185.0 91.0 L185.0 35.0 z"></path><path stroke="#000000" stroke-width="1.0" stroke-linecap="round" stroke-linejoin="round" fill="white" d="M465.0 35.0 L465.0 91.0 L305.0 91.0 L305.0 35.0 z"></path><path stroke="#000000" stroke-width="1.0" stroke-linecap="round" stroke-linejoin="round" fill="white" d="M305.0 35.0 L305.0 91.0 L185.0 91.0 L185.0 35.0 z"></path><path stroke="#000000" stroke-width="1.0" stroke-linecap="round" stroke-linejoin="round" fill="white" d="M585.0 35.0 L585.0 91.0 L465.0 91.0 L465.0 35.0 z"></path><path stroke="#000000" stroke-width="1.0" stroke-linecap="round" stroke-linejoin="round" fill="white" d="M25.0 91.0 L25.0 133.0 L185.0 133.0 L185.0 91.0 z"></path><path stroke="#000000" stroke-width="1.0" stroke-linecap="round" stroke-linejoin="round" fill="white" d="M305.0 133.0 L305.0 91.0 L465.0 91.0 L465.0 133.0 z"></path><path stroke="#000000" stroke-width="1.0" stroke-linecap="round" stroke-linejoin="round" fill="white" d="M305.0 91.0 L305.0 133.0 L185.0 133.0 L185.0 91.0 z"></path><path stroke="#000000" stroke-width="1.0" stroke-linecap="round" stroke-linejoin="round" fill="white" d="M585.0 91.0 L585.0 133.0 L465.0 133.0 L465.0 91.0 z"></path><path stroke="#000000" stroke-width="1.0" stroke-linecap="round" stroke-linejoin="round" fill="white" d="M205.0 70.0 Q205.0 77.0 210.0 77.0 L230.0 77.0 Q235.0 77.0 235.0 70.0 L235.0 56.0 L235.0 56.0 Q235.0 49.0 230.0 49.0 L210.0 49.0 L210.0 49.0 Q205.0 49.0 205.0 56.0 L205.0 70.0 z"></path><path stroke="#000000" stroke-width="1.0" stroke-linecap="round" stroke-linejoin="round" fill="white" d="M515.0 49.0 L515.0 77.0 L485.0 77.0 L485.0 49.0 z"></path><path stroke="none" stroke-width="1.0" stroke-linecap="round" stroke-linejoin="round" fill="#000000" d="M230.0 98.0 L240.0 105.0 L230.0 112.0 z"></path><path stroke="#000000" stroke-width="1.0" stroke-linecap="round" stroke-linejoin="round" fill="none" d="M220.0 105.0 L235.0 105.0 "></path><path stroke="#000000" stroke-width="1.0" stroke-linecap="round" stroke-linejoin="round" fill="none" d="M255.0 105.0 L235.0 105.0 "></path><path stroke="#000000" stroke-width="1.0" stroke-linecap="round" stroke-linejoin="round" fill="none" d="M535.0 105.0 L505.0 105.0 "></path><path stroke="#000000" stroke-width="1.0" stroke-linecap="round" stroke-linejoin="round" fill="#ffffff" d="M518.5 105.0 L518.38074 105.90587 L518.03107 106.75 L517.47485 107.47488 L516.75 108.03109 L515.9059 108.38074 L515.0 108.5 L514.0941 108.38074 L513.25 108.03109 L512.52515 107.47488 L511.9689 106.75 L511.61926 105.90587 L511.5 105.0 L511.61926 104.09413 L511.9689 103.25 L512.52515 102.52512 L513.25 101.96891 L514.0941 101.61926 L515.0 101.5 L515.9059 101.61926 L516.75 101.96891 L517.47485 102.52512 L518.03107 103.25 L518.38074 104.09413 L518.5 105.0 z"></path><text x="317" y="54" font-family="sans-serif" font-size="15" stroke="none" fill="#000000"><![CDATA[Process]]></text><text x="30" y="110" font-family="sans-serif" font-size="15" stroke="none" fill="#000000"><![CDATA[X Produces Y]]></text><text x="30" y="124" font-family="sans-serif" font-size="15" stroke="none" fill="#000000"><![CDATA[Y Accepts X]]></text><text x="318" y="110" font-family="sans-serif" font-size="15" stroke="none" fill="#000000"><![CDATA[X Uses Y]]></text><text x="273" y="110" font-family="sans-serif" font-size="15" stroke="none" fill="#000000"><![CDATA[Y ]]></text><text x="483" y="110" font-family="sans-serif" font-size="15" stroke="none" fill="#000000"><![CDATA[X ]]></text><text x="33" y="54" font-family="sans-serif" font-size="15" stroke="none" fill="#000000"><![CDATA[Data]]></text><text x="553" y="110" font-family="sans-serif" font-size="15" stroke="none" fill="#000000"><![CDATA[Y ]]></text><text x="203" y="110" font-family="sans-serif" font-size="15" stroke="none" fill="#000000"><![CDATA[X ]]></text></g></svg>