<?xml version="1.0" encoding="UTF-8"?><svg xmlns="http://www.w3.org/2000/svg" width="740" height="504" version="1.0" shape-rendering="geometricPrecision"><defs><style type="text/css">@font-face {
  font-family: sans-serif;
}</style><filter id="shadowBlur" x="0" y="0" width="200%" height="200%"><feOffset in="SourceGraphic" dx="3.0003002" dy="3.0003002" result="offOut"></feOffset><feGaussianBlur in="offOut" stdDeviation="3"></feGaussianBlur></filter></defs><g stroke-width="1" stroke-linecap="square" stroke-linejoin="round"><rect x="0" y="0" width="740" height="504" style="fill: #ffffff"></rect><path stroke="#000000" stroke-width="1.0" stroke-linecap="round" stroke-linejoin="round" fill="white" d="M435.0 273.0 L435.0 343.0 L305.0 343.0 L305.0 273.0 z"></path><path stroke="#000000" stroke-width="1.0" stroke-linecap="round" stroke-linejoin="round" fill="white" d="M435.0 217.0 L305.0 217.0 L305.0 147.0 L435.0 147.0 z"></path><path stroke="#000000" stroke-width="1.0" stroke-linecap="round" stroke-linejoin="round" fill="white" d="M305.0 469.0 L435.0 469.0 L435.0 399.0 L305.0 399.0 z"></path><path stroke="#000000" stroke-width="1.0" stroke-linecap="round" stroke-linejoin="round" fill="white" d="M435.0 35.0 L435.0 91.0 L305.0 91.0 L305.0 35.0 z"></path><path stroke="#000000" stroke-width="1.0" stroke-linecap="round" stroke-linejoin="round" fill="white" d="M190.0 357.0 Q185.0 357.0 185.0 364.0 L185.0 378.0 Q185.0 385.0 190.0 385.0 L270.0 385.0 L270.0 385.0 Q275.0 385.0 275.0 378.0 L275.0 364.0 L275.0 364.0 Q275.0 357.0 270.0 357.0 L190.0 357.0 z"></path><path stroke="#000000" stroke-width="1.0" stroke-linecap="round" stroke-linejoin="round" fill="white" d="M550.0 105.0 Q555.0 105.0 555.0 112.0 L555.0 126.0 Q555.0 133.0 550.0 133.0 L470.0 133.0 L470.0 133.0 Q465.0 133.0 465.0 126.0 L465.0 112.0 L465.0 112.0 Q465.0 105.0 470.0 105.0 L550.0 105.0 z"></path><path stroke="#000000" stroke-width="1.0" stroke-linecap="round" stroke-linejoin="round" fill="white" d="M710.0 105.0 Q715.0 105.0 715.0 112.0 L715.0 126.0 Q715.0 133.0 710.0 133.0 L630.0 133.0 L630.0 133.0 Q625.0 133.0 625.0 126.0 L625.0 112.0 L625.0 112.0 Q625.0 105.0 630.0 105.0 L710.0 105.0 z"></path><path stroke="#000000" stroke-width="1.0" stroke-linecap="round" stroke-linejoin="round" fill="white" d="M190.0 259.0 Q185.0 259.0 185.0 252.0 L185.0 238.0 Q185.0 231.0 190.0 231.0 L270.0 231.0 L270.0 231.0 Q275.0 231.0 275.0 238.0 L275.0 252.0 L275.0 252.0 Q275.0 259.0 270.0 259.0 L190.0 259.0 z"></path><path stroke="#000000" stroke-width="1.0" stroke-linecap="round" stroke-linejoin="round" fill="white" d="M270.0 105.0 Q275.0 105.0 275.0 112.0 L275.0 126.0 Q275.0 133.0 270.0 133.0 L190.0 133.0 L190.0 133.0 Q185.0 133.0 185.0 126.0 L185.0 112.0 L185.0 112.0 Q185.0 105.0 190.0 105.0 L270.0 105.0 z"></path><path stroke="#000000" stroke-width="1.0" stroke-linecap="round" stroke-linejoin="round" fill="white" d="M470.0 231.0 Q465.0 231.0 465.0 238.0 L465.0 252.0 Q465.0 259.0 470.0 259.0 L550.0 259.0 L550.0 259.0 Q555.0 259.0 555.0 252.0 L555.0 238.0 L555.0 238.0 Q555.0 231.0 550.0 231.0 L470.0 231.0 z"></path><path stroke="#000000" stroke-width="1.0" stroke-linecap="round" stroke-linejoin="round" fill="white" d="M550.0 357.0 Q555.0 357.0 555.0 364.0 L555.0 378.0 Q555.0 385.0 550.0 385.0 L470.0 385.0 L470.0 385.0 Q465.0 385.0 465.0 378.0 L465.0 364.0 L465.0 364.0 Q465.0 357.0 470.0 357.0 L550.0 357.0 z"></path><path stroke="#000000" stroke-width="1.0" stroke-linecap="round" stroke-linejoin="round" fill="none" d="M285.0 427.0 L230.0 427.0 Q225.0 427.0 225.0 420.0 L225.0 385.0 L225.0 385.0 "></path><path stroke="#000000" stroke-width="1.0" stroke-linecap="round" stroke-linejoin="round" fill="none" d="M225.0 357.0 L225.0 322.0 Q225.0 315.0 230.0 315.0 L285.0 315.0 L285.0 315.0 "></path><path stroke="#000000" stroke-width="1.0" stroke-linecap="round" stroke-linejoin="round" fill="none" d="M285.0 189.0 L230.0 189.0 Q225.0 189.0 225.0 196.0 L225.0 231.0 L225.0 231.0 "></path><path stroke="#000000" stroke-width="1.0" stroke-linecap="round" stroke-linejoin="round" fill="none" d="M285.0 301.0 L230.0 301.0 Q225.0 301.0 225.0 294.0 L225.0 259.0 L225.0 259.0 "></path><path stroke="#000000" stroke-width="1.0" stroke-linecap="round" stroke-linejoin="round" fill="none" d="M285.0 175.0 L230.0 175.0 Q225.0 175.0 225.0 168.0 L225.0 133.0 L225.0 133.0 "></path><path stroke="#000000" stroke-width="1.0" stroke-linecap="round" stroke-linejoin="round" fill="none" d="M225.0 105.0 L225.0 70.0 Q225.0 63.0 230.0 63.0 L285.0 63.0 L285.0 63.0 "></path><path stroke="#000000" stroke-width="1.0" stroke-linecap="round" stroke-linejoin="round" fill="none" d="M505.0 105.0 L505.0 70.0 Q505.0 63.0 500.0 63.0 L455.0 63.0 L455.0 63.0 "></path><path stroke="#000000" stroke-width="1.0" stroke-linecap="round" stroke-linejoin="round" fill="none" d="M505.0 133.0 L505.0 168.0 Q505.0 175.0 500.0 175.0 L455.0 175.0 L455.0 175.0 "></path><path stroke="#000000" stroke-width="1.0" stroke-linecap="round" stroke-linejoin="round" fill="none" d="M505.0 259.0 L505.0 294.0 Q505.0 301.0 500.0 301.0 L455.0 301.0 L455.0 301.0 "></path><path stroke="#000000" stroke-width="1.0" stroke-linecap="round" stroke-linejoin="round" fill="none" d="M505.0 231.0 L505.0 196.0 Q505.0 189.0 500.0 189.0 L455.0 189.0 L455.0 189.0 "></path><path stroke="#000000" stroke-width="1.0" stroke-linecap="round" stroke-linejoin="round" fill="none" d="M455.0 427.0 L500.0 427.0 Q505.0 427.0 505.0 420.0 L505.0 385.0 L505.0 385.0 "></path><path stroke="#000000" stroke-width="1.0" stroke-linecap="round" stroke-linejoin="round" fill="none" d="M505.0 357.0 L505.0 322.0 Q505.0 315.0 500.0 315.0 L455.0 315.0 L455.0 315.0 "></path><path stroke="none" stroke-width="1.0" stroke-linecap="round" stroke-linejoin="round" fill="#000000" d="M290.0 56.0 L280.0 63.0 L290.0 70.0 z"></path><path stroke="none" stroke-width="1.0" stroke-linecap="round" stroke-linejoin="round" fill="#000000" d="M460.0 56.0 L450.0 63.0 L460.0 70.0 z"></path><path stroke="none" stroke-width="1.0" stroke-linecap="round" stroke-linejoin="round" fill="#000000" d="M280.0 168.0 L290.0 175.0 L280.0 182.0 z"></path><path stroke="none" stroke-width="1.0" stroke-linecap="round" stroke-linejoin="round" fill="#000000" d="M450.0 168.0 L460.0 175.0 L450.0 182.0 z"></path><path stroke="none" stroke-width="1.0" stroke-linecap="round" stroke-linejoin="round" fill="#000000" d="M290.0 182.0 L280.0 189.0 L290.0 196.0 z"></path><path stroke="none" stroke-width="1.0" stroke-linecap="round" stroke-linejoin="round" fill="#000000" d="M460.0 182.0 L450.0 189.0 L460.0 196.0 z"></path><path stroke="none" stroke-width="1.0" stroke-linecap="round" stroke-linejoin="round" fill="#000000" d="M280.0 294.0 L290.0 301.0 L280.0 308.0 z"></path><path stroke="none" stroke-width="1.0" stroke-linecap="round" stroke-linejoin="round" fill="#000000" d="M450.0 294.0 L460.0 301.0 L450.0 308.0 z"></path><path stroke="none" stroke-width="1.0" stroke-linecap="round" stroke-linejoin="round" fill="#000000" d="M290.0 308.0 L280.0 315.0 L290.0 322.0 z"></path><path stroke="none" stroke-width="1.0" stroke-linecap="round" stroke-linejoin="round" fill="#000000" d="M460.0 308.0 L450.0 315.0 L460.0 322.0 z"></path><path stroke="none" stroke-width="1.0" stroke-linecap="round" stroke-linejoin="round" fill="#000000" d="M280.0 420.0 L290.0 427.0 L280.0 434.0 z"></path><path stroke="none" stroke-width="1.0" stroke-linecap="round" stroke-linejoin="round" fill="#000000" d="M450.0 420.0 L460.0 427.0 L450.0 434.0 z"></path><path stroke="#000000" stroke-width="1.0" stroke-linecap="round" stroke-linejoin="round" fill="none" d="M285.0 301.0 L305.0 301.0 "></path><path stroke="#000000" stroke-width="1.0" stroke-linecap="round" stroke-linejoin="round" fill="none" d="M435.0 301.0 L455.0 301.0 "></path><path stroke="#000000" stroke-width="1.0" stroke-linecap="round" stroke-linejoin="round" fill="none" d="M285.0 315.0 L305.0 315.0 "></path><path stroke="#000000" stroke-width="1.0" stroke-linecap="round" stroke-linejoin="round" fill="none" d="M435.0 315.0 L455.0 315.0 "></path><path stroke="#000000" stroke-width="1.0" stroke-linecap="round" stroke-linejoin="round" fill="none" d="M435.0 175.0 L455.0 175.0 "></path><path stroke="#000000" stroke-width="1.0" stroke-linecap="round" stroke-linejoin="round" fill="none" d="M285.0 189.0 L305.0 189.0 "></path><path stroke="#000000" stroke-width="1.0" stroke-linecap="round" stroke-linejoin="round" fill="none" d="M435.0 189.0 L455.0 189.0 "></path><path stroke="#000000" stroke-width="1.0" stroke-linecap="round" stroke-linejoin="round" fill="none" d="M285.0 175.0 L305.0 175.0 "></path><path stroke="#000000" stroke-width="1.0" stroke-linecap="round" stroke-linejoin="round" fill="none" d="M285.0 427.0 L305.0 427.0 "></path><path stroke="#000000" stroke-width="1.0" stroke-linecap="round" stroke-linejoin="round" fill="none" d="M435.0 427.0 L455.0 427.0 "></path><path stroke="#000000" stroke-width="1.0" stroke-linecap="round" stroke-linejoin="round" fill="none" d="M285.0 63.0 L305.0 63.0 "></path><path stroke="#000000" stroke-width="1.0" stroke-linecap="round" stroke-linejoin="round" fill="none" d="M435.0 63.0 L455.0 63.0 "></path><path stroke="#000000" stroke-width="1.0" stroke-linecap="round" stroke-linejoin="round" fill="none" d="M555.0 119.0 L625.0 119.0 "></path><path stroke="#000000" stroke-width="1.0" stroke-linecap="round" stroke-linejoin="round" fill="#ffffff" d="M578.5 119.0 L578.38074 119.90587 L578.03107 120.75 L577.47485 121.47488 L576.75 122.03109 L575.9059 122.38074 L575.0 122.5 L574.0941 122.38074 L573.25 122.03109 L572.52515 121.47488 L571.96893 120.75 L571.61926 119.90587 L571.5 119.0 L571.61926 118.09413 L571.96893 117.25 L572.52515 116.52512 L573.25 115.96891 L574.0941 115.61926 L575.0 115.5 L575.9059 115.61926 L576.75 115.96891 L577.47485 116.52512 L578.03107 117.25 L578.38074 118.09413 L578.5 119.0 z"></path><text x="336" y="68" font-family="sans-serif" font-size="15" stroke="none" fill="#000000"><![CDATA[Compiler]]></text><text x="655" y="124" font-family="sans-serif" font-size="15" stroke="none" fill="#000000"><![CDATA[srcs]]></text><text x="361" y="180" font-family="sans-serif" font-size="15" stroke="none" fill="#000000"><![CDATA[Build]]></text><text x="348" y="194" font-family="sans-serif" font-size="15" stroke="none" fill="#000000"><![CDATA[System]]></text><text x="348" y="306" font-family="sans-serif" font-size="15" stroke="none" fill="#000000"><![CDATA[P.D.M.]]></text><text x="214" y="124" font-family="sans-serif" font-size="15" stroke="none" fill="#000000"><![CDATA[bins]]></text><text x="490" y="124" font-family="sans-serif" font-size="14" stroke="none" fill="#000000"><![CDATA[cmd]]></text><text x="340" y="432" font-family="sans-serif" font-size="15" stroke="none" fill="#000000"><![CDATA[Package]]></text><text x="340" y="446" font-family="sans-serif" font-size="15" stroke="none" fill="#000000"><![CDATA[Index]]></text><text x="504" y="250" font-family="sans-serif" font-size="15" stroke="none" fill="#000000"><![CDATA[? ]]></text><text x="504" y="376" font-family="sans-serif" font-size="15" stroke="none" fill="#000000"><![CDATA[? ]]></text><text x="224" y="250" font-family="sans-serif" font-size="15" stroke="none" fill="#000000"><![CDATA[? ]]></text><text x="224" y="376" font-family="sans-serif" font-size="15" stroke="none" fill="#000000"><![CDATA[? ]]></text></g></svg>