<?xml version="1.0" encoding="UTF-8"?><svg xmlns="http://www.w3.org/2000/svg" width="820" height="910" version="1.0" shape-rendering="geometricPrecision"><defs><style type="text/css">@font-face {
  font-family: sans-serif;
}</style><filter id="shadowBlur" x="0" y="0" width="200%" height="200%"><feOffset in="SourceGraphic" dx="3.0003002" dy="3.0003002" result="offOut"></feOffset><feGaussianBlur in="offOut" stdDeviation="3"></feGaussianBlur></filter></defs><g stroke-width="1" stroke-linecap="square" stroke-linejoin="round"><rect x="0" y="0" width="820" height="910" style="fill: #ffffff"></rect><path stroke="#000000" stroke-width="1.0" stroke-dasharray="5.000000,5.000000" stroke-miterlimit="0" stroke-linecap="butt" stroke-linejoin="round" fill="white" d="M255.0 651.0 L30.0 651.0 Q25.0 651.0 25.0 658.0 L25.0 868.0 L25.0 868.0 Q25.0 875.0 30.0 875.0 L790.0 875.0 L790.0 875.0 Q795.0 875.0 795.0 868.0 L795.0 658.0 L795.0 658.0 Q795.0 651.0 790.0 651.0 L555.0 651.0 L555.0 651.0 "></path><path stroke="#000000" stroke-width="1.0" stroke-dasharray="5.000000,5.000000" stroke-miterlimit="0" stroke-linecap="butt" stroke-linejoin="round" fill="white" d="M255.0 217.0 L30.0 217.0 Q25.0 217.0 25.0 210.0 L25.0 42.0 L25.0 42.0 Q25.0 35.0 30.0 35.0 L790.0 35.0 L790.0 35.0 Q795.0 35.0 795.0 42.0 L795.0 210.0 L795.0 210.0 Q795.0 217.0 790.0 217.0 L555.0 217.0 L555.0 217.0 "></path><path stroke="#000000" stroke-width="1.0" stroke-dasharray="5.000000,5.000000" stroke-miterlimit="0" stroke-linecap="butt" stroke-linejoin="round" fill="white" d="M555.0 399.0 L790.0 399.0 Q795.0 399.0 795.0 406.0 L795.0 616.0 L795.0 616.0 Q795.0 623.0 790.0 623.0 L555.0 623.0 L555.0 623.0 "></path><path stroke="#000000" stroke-width="1.0" stroke-dasharray="5.000000,5.000000" stroke-miterlimit="0" stroke-linecap="butt" stroke-linejoin="round" fill="white" d="M255.0 399.0 L30.0 399.0 Q25.0 399.0 25.0 406.0 L25.0 616.0 L25.0 616.0 Q25.0 623.0 30.0 623.0 L255.0 623.0 L255.0 623.0 "></path><path stroke="#000000" stroke-width="1.0" stroke-dasharray="5.000000,5.000000" stroke-miterlimit="0" stroke-linecap="butt" stroke-linejoin="round" fill="white" d="M555.0 245.0 L790.0 245.0 Q795.0 245.0 795.0 252.0 L795.0 364.0 L795.0 364.0 Q795.0 371.0 790.0 371.0 L555.0 371.0 L555.0 371.0 "></path><path stroke="#000000" stroke-width="1.0" stroke-dasharray="5.000000,5.000000" stroke-miterlimit="0" stroke-linecap="butt" stroke-linejoin="round" fill="white" d="M255.0 245.0 L30.0 245.0 Q25.0 245.0 25.0 252.0 L25.0 364.0 L25.0 364.0 Q25.0 371.0 30.0 371.0 L255.0 371.0 L255.0 371.0 "></path><path stroke="#000000" stroke-width="1.0" stroke-linecap="round" stroke-linejoin="round" fill="white" d="M475.0 287.0 L475.0 357.0 L345.0 357.0 L345.0 287.0 z"></path><path stroke="#000000" stroke-width="1.0" stroke-linecap="round" stroke-linejoin="round" fill="white" d="M345.0 539.0 L345.0 609.0 L475.0 609.0 L475.0 539.0 z"></path><path stroke="#000000" stroke-width="1.0" stroke-linecap="round" stroke-linejoin="round" fill="white" d="M475.0 791.0 L475.0 861.0 L345.0 861.0 L345.0 791.0 z"></path><path stroke="#000000" stroke-width="1.0" stroke-linecap="round" stroke-linejoin="round" fill="white" d="M345.0 49.0 L345.0 105.0 L475.0 105.0 L475.0 49.0 z"></path><path stroke="#000000" stroke-width="1.0" stroke-linecap="round" stroke-linejoin="round" fill="none" d="M265.0 147.0 L265.0 308.0 Q265.0 315.0 270.0 315.0 L325.0 315.0 L325.0 315.0 "></path><path stroke="#000000" stroke-width="1.0" stroke-linecap="round" stroke-linejoin="round" fill="none" d="M265.0 469.0 L265.0 336.0 Q265.0 329.0 270.0 329.0 L325.0 329.0 L325.0 329.0 "></path><path stroke="#000000" stroke-width="1.0" stroke-linecap="round" stroke-linejoin="round" fill="none" d="M325.0 581.0 L270.0 581.0 Q265.0 581.0 265.0 588.0 L265.0 721.0 L265.0 721.0 "></path><path stroke="#000000" stroke-width="1.0" stroke-linecap="round" stroke-linejoin="round" fill="none" d="M495.0 315.0 L540.0 315.0 Q545.0 315.0 545.0 308.0 L545.0 147.0 L545.0 147.0 "></path><path stroke="#000000" stroke-width="1.0" stroke-linecap="round" stroke-linejoin="round" fill="none" d="M495.0 329.0 L540.0 329.0 Q545.0 329.0 545.0 336.0 L545.0 469.0 L545.0 469.0 "></path><path stroke="#000000" stroke-width="1.0" stroke-linecap="round" stroke-linejoin="round" fill="none" d="M495.0 581.0 L540.0 581.0 Q545.0 581.0 545.0 588.0 L545.0 721.0 L545.0 721.0 "></path><path stroke="#000000" stroke-width="1.0" stroke-linecap="round" stroke-linejoin="round" fill="white" d="M150.0 441.0 Q155.0 441.0 155.0 448.0 L155.0 462.0 Q155.0 469.0 150.0 469.0 L70.0 469.0 L70.0 469.0 Q65.0 469.0 65.0 462.0 L65.0 448.0 L65.0 448.0 Q65.0 441.0 70.0 441.0 L150.0 441.0 z"></path><path stroke="#000000" stroke-width="1.0" stroke-linecap="round" stroke-linejoin="round" fill="white" d="M310.0 469.0 Q315.0 469.0 315.0 476.0 L315.0 490.0 Q315.0 497.0 310.0 497.0 L230.0 497.0 L230.0 497.0 Q225.0 497.0 225.0 490.0 L225.0 476.0 L225.0 476.0 Q225.0 469.0 230.0 469.0 L310.0 469.0 z"></path><path stroke="#000000" stroke-width="1.0" stroke-linecap="round" stroke-linejoin="round" fill="white" d="M150.0 497.0 Q155.0 497.0 155.0 504.0 L155.0 518.0 Q155.0 525.0 150.0 525.0 L70.0 525.0 L70.0 525.0 Q65.0 525.0 65.0 518.0 L65.0 504.0 L65.0 504.0 Q65.0 497.0 70.0 497.0 L150.0 497.0 z"></path><path stroke="#000000" stroke-width="1.0" stroke-linecap="round" stroke-linejoin="round" fill="white" d="M150.0 693.0 Q155.0 693.0 155.0 700.0 L155.0 714.0 Q155.0 721.0 150.0 721.0 L70.0 721.0 L70.0 721.0 Q65.0 721.0 65.0 714.0 L65.0 700.0 L65.0 700.0 Q65.0 693.0 70.0 693.0 L150.0 693.0 z"></path><path stroke="#000000" stroke-width="1.0" stroke-linecap="round" stroke-linejoin="round" fill="white" d="M310.0 721.0 Q315.0 721.0 315.0 728.0 L315.0 742.0 Q315.0 749.0 310.0 749.0 L230.0 749.0 L230.0 749.0 Q225.0 749.0 225.0 742.0 L225.0 728.0 L225.0 728.0 Q225.0 721.0 230.0 721.0 L310.0 721.0 z"></path><path stroke="#000000" stroke-width="1.0" stroke-linecap="round" stroke-linejoin="round" fill="white" d="M150.0 749.0 Q155.0 749.0 155.0 756.0 L155.0 770.0 Q155.0 777.0 150.0 777.0 L70.0 777.0 L70.0 777.0 Q65.0 777.0 65.0 770.0 L65.0 756.0 L65.0 756.0 Q65.0 749.0 70.0 749.0 L150.0 749.0 z"></path><path stroke="#000000" stroke-width="1.0" stroke-linecap="round" stroke-linejoin="round" fill="white" d="M310.0 119.0 Q315.0 119.0 315.0 126.0 L315.0 140.0 Q315.0 147.0 310.0 147.0 L230.0 147.0 L230.0 147.0 Q225.0 147.0 225.0 140.0 L225.0 126.0 L225.0 126.0 Q225.0 119.0 230.0 119.0 L310.0 119.0 z"></path><path stroke="#000000" stroke-width="1.0" stroke-linecap="round" stroke-linejoin="round" fill="white" d="M670.0 91.0 Q665.0 91.0 665.0 98.0 L665.0 112.0 Q665.0 119.0 670.0 119.0 L750.0 119.0 L750.0 119.0 Q755.0 119.0 755.0 112.0 L755.0 98.0 L755.0 98.0 Q755.0 91.0 750.0 91.0 L670.0 91.0 z"></path><path stroke="#000000" stroke-width="1.0" stroke-linecap="round" stroke-linejoin="round" fill="white" d="M590.0 119.0 Q595.0 119.0 595.0 126.0 L595.0 140.0 Q595.0 147.0 590.0 147.0 L510.0 147.0 L510.0 147.0 Q505.0 147.0 505.0 140.0 L505.0 126.0 L505.0 126.0 Q505.0 119.0 510.0 119.0 L590.0 119.0 z"></path><path stroke="#000000" stroke-width="1.0" stroke-linecap="round" stroke-linejoin="round" fill="white" d="M670.0 147.0 Q665.0 147.0 665.0 154.0 L665.0 168.0 Q665.0 175.0 670.0 175.0 L750.0 175.0 L750.0 175.0 Q755.0 175.0 755.0 168.0 L755.0 154.0 L755.0 154.0 Q755.0 147.0 750.0 147.0 L670.0 147.0 z"></path><path stroke="#000000" stroke-width="1.0" stroke-linecap="round" stroke-linejoin="round" fill="white" d="M590.0 469.0 Q595.0 469.0 595.0 476.0 L595.0 490.0 Q595.0 497.0 590.0 497.0 L510.0 497.0 L510.0 497.0 Q505.0 497.0 505.0 490.0 L505.0 476.0 L505.0 476.0 Q505.0 469.0 510.0 469.0 L590.0 469.0 z"></path><path stroke="#000000" stroke-width="1.0" stroke-linecap="round" stroke-linejoin="round" fill="white" d="M665.0 490.0 Q665.0 497.0 670.0 497.0 L750.0 497.0 Q755.0 497.0 755.0 490.0 L755.0 476.0 L755.0 476.0 Q755.0 469.0 750.0 469.0 L670.0 469.0 L670.0 469.0 Q665.0 469.0 665.0 476.0 L665.0 490.0 z"></path><path stroke="#000000" stroke-width="1.0" stroke-linecap="round" stroke-linejoin="round" fill="white" d="M510.0 721.0 Q505.0 721.0 505.0 728.0 L505.0 742.0 Q505.0 749.0 510.0 749.0 L590.0 749.0 L590.0 749.0 Q595.0 749.0 595.0 742.0 L595.0 728.0 L595.0 728.0 Q595.0 721.0 590.0 721.0 L510.0 721.0 z"></path><path stroke="#000000" stroke-width="1.0" stroke-linecap="round" stroke-linejoin="round" fill="none" d="M325.0 567.0 L270.0 567.0 Q265.0 567.0 265.0 560.0 L265.0 497.0 L265.0 497.0 "></path><path stroke="#000000" stroke-width="1.0" stroke-linecap="round" stroke-linejoin="round" fill="none" d="M325.0 819.0 L270.0 819.0 Q265.0 819.0 265.0 812.0 L265.0 749.0 L265.0 749.0 "></path><path stroke="#000000" stroke-width="1.0" stroke-linecap="round" stroke-linejoin="round" fill="none" d="M495.0 567.0 L540.0 567.0 Q545.0 567.0 545.0 560.0 L545.0 497.0 L545.0 497.0 "></path><path stroke="#000000" stroke-width="1.0" stroke-linecap="round" stroke-linejoin="round" fill="none" d="M545.0 749.0 L545.0 812.0 Q545.0 819.0 540.0 819.0 L495.0 819.0 L495.0 819.0 "></path><path stroke="#000000" stroke-width="1.0" stroke-linecap="round" stroke-linejoin="round" fill="none" d="M325.0 77.0 L270.0 77.0 Q265.0 77.0 265.0 84.0 L265.0 119.0 L265.0 119.0 "></path><path stroke="#000000" stroke-width="1.0" stroke-linecap="round" stroke-linejoin="round" fill="none" d="M545.0 119.0 L545.0 84.0 Q545.0 77.0 540.0 77.0 L495.0 77.0 L495.0 77.0 "></path><path stroke="#000000" stroke-width="1.0" stroke-linecap="round" stroke-linejoin="round" fill="none" d="M185.0 483.0 L185.0 504.0 Q185.0 511.0 180.0 511.0 L155.0 511.0 L155.0 511.0 "></path><path stroke="#000000" stroke-width="1.0" stroke-linecap="round" stroke-linejoin="round" fill="none" d="M155.0 455.0 L180.0 455.0 Q185.0 455.0 185.0 462.0 L185.0 483.0 L185.0 483.0 "></path><path stroke="#000000" stroke-width="1.0" stroke-linecap="round" stroke-linejoin="round" fill="none" d="M185.0 735.0 L185.0 756.0 Q185.0 763.0 180.0 763.0 L155.0 763.0 L155.0 763.0 "></path><path stroke="#000000" stroke-width="1.0" stroke-linecap="round" stroke-linejoin="round" fill="none" d="M155.0 707.0 L180.0 707.0 Q185.0 707.0 185.0 714.0 L185.0 735.0 L185.0 735.0 "></path><path stroke="#000000" stroke-width="1.0" stroke-linecap="round" stroke-linejoin="round" fill="none" d="M635.0 133.0 L635.0 154.0 Q635.0 161.0 640.0 161.0 L665.0 161.0 L665.0 161.0 "></path><path stroke="#000000" stroke-width="1.0" stroke-linecap="round" stroke-linejoin="round" fill="none" d="M665.0 105.0 L640.0 105.0 Q635.0 105.0 635.0 112.0 L635.0 133.0 L635.0 133.0 "></path><path stroke="none" stroke-width="1.0" stroke-linecap="round" stroke-linejoin="round" fill="#000000" d="M330.0 70.0 L320.0 77.0 L330.0 84.0 z"></path><path stroke="none" stroke-width="1.0" stroke-linecap="round" stroke-linejoin="round" fill="#000000" d="M500.0 70.0 L490.0 77.0 L500.0 84.0 z"></path><path stroke="none" stroke-width="1.0" stroke-linecap="round" stroke-linejoin="round" fill="#000000" d="M320.0 308.0 L330.0 315.0 L320.0 322.0 z"></path><path stroke="none" stroke-width="1.0" stroke-linecap="round" stroke-linejoin="round" fill="#000000" d="M490.0 308.0 L500.0 315.0 L490.0 322.0 z"></path><path stroke="none" stroke-width="1.0" stroke-linecap="round" stroke-linejoin="round" fill="#000000" d="M330.0 322.0 L320.0 329.0 L330.0 336.0 z"></path><path stroke="none" stroke-width="1.0" stroke-linecap="round" stroke-linejoin="round" fill="#000000" d="M500.0 322.0 L490.0 329.0 L500.0 336.0 z"></path><path stroke="none" stroke-width="1.0" stroke-linecap="round" stroke-linejoin="round" fill="#000000" d="M320.0 560.0 L330.0 567.0 L320.0 574.0 z"></path><path stroke="none" stroke-width="1.0" stroke-linecap="round" stroke-linejoin="round" fill="#000000" d="M490.0 560.0 L500.0 567.0 L490.0 574.0 z"></path><path stroke="none" stroke-width="1.0" stroke-linecap="round" stroke-linejoin="round" fill="#000000" d="M330.0 574.0 L320.0 581.0 L330.0 588.0 z"></path><path stroke="none" stroke-width="1.0" stroke-linecap="round" stroke-linejoin="round" fill="#000000" d="M500.0 574.0 L490.0 581.0 L500.0 588.0 z"></path><path stroke="none" stroke-width="1.0" stroke-linecap="round" stroke-linejoin="round" fill="#000000" d="M320.0 812.0 L330.0 819.0 L320.0 826.0 z"></path><path stroke="none" stroke-width="1.0" stroke-linecap="round" stroke-linejoin="round" fill="#000000" d="M490.0 812.0 L500.0 819.0 L490.0 826.0 z"></path><path stroke="#000000" stroke-width="1.0" stroke-linecap="round" stroke-linejoin="round" fill="none" d="M475.0 77.0 L495.0 77.0 "></path><path stroke="#000000" stroke-width="1.0" stroke-linecap="round" stroke-linejoin="round" fill="none" d="M325.0 77.0 L345.0 77.0 "></path><path stroke="#000000" stroke-width="1.0" stroke-linecap="round" stroke-linejoin="round" fill="none" d="M325.0 315.0 L345.0 315.0 "></path><path stroke="#000000" stroke-width="1.0" stroke-linecap="round" stroke-linejoin="round" fill="none" d="M475.0 315.0 L495.0 315.0 "></path><path stroke="#000000" stroke-width="1.0" stroke-linecap="round" stroke-linejoin="round" fill="none" d="M325.0 329.0 L345.0 329.0 "></path><path stroke="#000000" stroke-width="1.0" stroke-linecap="round" stroke-linejoin="round" fill="none" d="M475.0 329.0 L495.0 329.0 "></path><path stroke="#000000" stroke-width="1.0" stroke-linecap="round" stroke-linejoin="round" fill="none" d="M325.0 567.0 L345.0 567.0 "></path><path stroke="#000000" stroke-width="1.0" stroke-linecap="round" stroke-linejoin="round" fill="none" d="M475.0 567.0 L495.0 567.0 "></path><path stroke="#000000" stroke-width="1.0" stroke-linecap="round" stroke-linejoin="round" fill="none" d="M325.0 581.0 L345.0 581.0 "></path><path stroke="#000000" stroke-width="1.0" stroke-linecap="round" stroke-linejoin="round" fill="none" d="M475.0 581.0 L495.0 581.0 "></path><path stroke="#000000" stroke-width="1.0" stroke-linecap="round" stroke-linejoin="round" fill="none" d="M325.0 819.0 L345.0 819.0 "></path><path stroke="#000000" stroke-width="1.0" stroke-linecap="round" stroke-linejoin="round" fill="none" d="M475.0 819.0 L495.0 819.0 "></path><path stroke="#000000" stroke-width="1.0" stroke-dasharray="5.000000,5.000000" stroke-miterlimit="0" stroke-linecap="butt" stroke-linejoin="round" fill="white" d="M275.0 217.0 L535.0 217.0 "></path><path stroke="#000000" stroke-width="1.0" stroke-dasharray="5.000000,5.000000" stroke-miterlimit="0" stroke-linecap="butt" stroke-linejoin="round" fill="white" d="M275.0 245.0 L535.0 245.0 "></path><path stroke="#000000" stroke-width="1.0" stroke-dasharray="5.000000,5.000000" stroke-miterlimit="0" stroke-linecap="butt" stroke-linejoin="round" fill="white" d="M535.0 371.0 L275.0 371.0 "></path><path stroke="#000000" stroke-width="1.0" stroke-dasharray="5.000000,5.000000" stroke-miterlimit="0" stroke-linecap="butt" stroke-linejoin="round" fill="white" d="M535.0 399.0 L275.0 399.0 "></path><path stroke="#000000" stroke-width="1.0" stroke-dasharray="5.000000,5.000000" stroke-miterlimit="0" stroke-linecap="butt" stroke-linejoin="round" fill="white" d="M535.0 623.0 L275.0 623.0 "></path><path stroke="#000000" stroke-width="1.0" stroke-dasharray="5.000000,5.000000" stroke-miterlimit="0" stroke-linecap="butt" stroke-linejoin="round" fill="white" d="M535.0 651.0 L275.0 651.0 "></path><path stroke="#000000" stroke-width="1.0" stroke-linecap="round" stroke-linejoin="round" fill="none" d="M185.0 483.0 L225.0 483.0 "></path><path stroke="#000000" stroke-width="1.0" stroke-linecap="round" stroke-linejoin="round" fill="none" d="M185.0 735.0 L225.0 735.0 "></path><path stroke="#000000" stroke-width="1.0" stroke-linecap="round" stroke-linejoin="round" fill="none" d="M635.0 133.0 L595.0 133.0 "></path><path stroke="#000000" stroke-width="1.0" stroke-linecap="round" stroke-linejoin="round" fill="none" d="M665.0 483.0 L595.0 483.0 "></path><path stroke="#000000" stroke-width="1.0" stroke-linecap="round" stroke-linejoin="round" fill="#ffffff" d="M208.5 735.0 L208.38074 735.9059 L208.03108 736.75 L207.47487 737.47485 L206.75 738.03107 L205.90587 738.38074 L205.0 738.5 L204.09413 738.38074 L203.25 738.03107 L202.52513 737.47485 L201.96892 736.75 L201.61926 735.9059 L201.5 735.0 L201.61926 734.0941 L201.96892 733.25 L202.52513 732.52515 L203.25 731.96893 L204.09413 731.61926 L205.0 731.5 L205.90587 731.61926 L206.75 731.96893 L207.47487 732.52515 L208.03108 733.25 L208.38074 734.0941 L208.5 735.0 z"></path><path stroke="#000000" stroke-width="1.0" stroke-linecap="round" stroke-linejoin="round" fill="#ffffff" d="M618.5 483.0 L618.38074 483.90585 L618.03107 484.75 L617.47485 485.47488 L616.75 486.0311 L615.9059 486.38074 L615.0 486.5 L614.0941 486.38074 L613.25 486.0311 L612.52515 485.47488 L611.96893 484.75 L611.61926 483.90585 L611.5 483.0 L611.61926 482.09415 L611.96893 481.25 L612.52515 480.52512 L613.25 479.9689 L614.0941 479.61926 L615.0 479.5 L615.9059 479.61926 L616.75 479.9689 L617.47485 480.52512 L618.03107 481.25 L618.38074 482.09415 L618.5 483.0 z"></path><path stroke="#000000" stroke-width="1.0" stroke-linecap="round" stroke-linejoin="round" fill="#ffffff" d="M618.5 133.0 L618.38074 133.90587 L618.03107 134.75 L617.47485 135.47487 L616.75 136.03108 L615.9059 136.38074 L615.0 136.5 L614.0941 136.38074 L613.25 136.03108 L612.52515 135.47487 L611.96893 134.75 L611.61926 133.90587 L611.5 133.0 L611.61926 132.09413 L611.96893 131.25 L612.52515 130.52513 L613.25 129.96892 L614.0941 129.61926 L615.0 129.5 L615.9059 129.61926 L616.75 129.96892 L617.47485 130.52513 L618.03107 131.25 L618.38074 132.09413 L618.5 133.0 z"></path><path stroke="#000000" stroke-width="1.0" stroke-linecap="round" stroke-linejoin="round" fill="#ffffff" d="M208.5 483.0 L208.38074 483.90585 L208.03108 484.75 L207.47487 485.47488 L206.75 486.0311 L205.90587 486.38074 L205.0 486.5 L204.09413 486.38074 L203.25 486.0311 L202.52513 485.47488 L201.96892 484.75 L201.61926 483.90585 L201.5 483.0 L201.61926 482.09415 L201.96892 481.25 L202.52513 480.52512 L203.25 479.9689 L204.09413 479.61926 L205.0 479.5 L205.90587 479.61926 L206.75 479.9689 L207.47487 480.52512 L208.03108 481.25 L208.38074 482.09415 L208.5 483.0 z"></path><text x="388" y="572" font-family="sans-serif" font-size="15" stroke="none" fill="#000000"><![CDATA[P.D.M.]]></text><text x="46" y="670" font-family="sans-serif" font-size="15" stroke="none" fill="#000000"><![CDATA[Package Index API]]></text><text x="47" y="264" font-family="sans-serif" font-size="15" stroke="none" fill="#000000"><![CDATA[Build System API]]></text><text x="41" y="208" font-family="sans-serif" font-size="15" stroke="none" fill="#000000"><![CDATA[Compiler API]]></text><text x="401" y="320" font-family="sans-serif" font-size="15" stroke="none" fill="#000000"><![CDATA[Build]]></text><text x="388" y="334" font-family="sans-serif" font-size="15" stroke="none" fill="#000000"><![CDATA[System]]></text><text x="254" y="138" font-family="sans-serif" font-size="15" stroke="none" fill="#000000"><![CDATA[bins]]></text><text x="380" y="824" font-family="sans-serif" font-size="15" stroke="none" fill="#000000"><![CDATA[Package]]></text><text x="380" y="838" font-family="sans-serif" font-size="15" stroke="none" fill="#000000"><![CDATA[Index]]></text><text x="34" y="418" font-family="sans-serif" font-size="15" stroke="none" fill="#000000"><![CDATA[PDM API]]></text><text x="85" y="460" font-family="sans-serif" font-size="15" stroke="none" fill="#000000"><![CDATA[sopts]]></text><text x="376" y="82" font-family="sans-serif" font-size="15" stroke="none" fill="#000000"><![CDATA[Compiler]]></text><text x="244" y="740" font-family="sans-serif" font-size="15" stroke="none" fill="#000000"><![CDATA[pquery]]></text><text x="251" y="488" font-family="sans-serif" font-size="15" stroke="none" fill="#000000"><![CDATA[pdep]]></text><text x="85" y="712" font-family="sans-serif" font-size="15" stroke="none" fill="#000000"><![CDATA[sopts]]></text><text x="92" y="516" font-family="sans-serif" font-size="15" stroke="none" fill="#000000"><![CDATA[UPID]]></text><text x="685" y="110" font-family="sans-serif" font-size="15" stroke="none" fill="#000000"><![CDATA[sopts]]></text><text x="92" y="768" font-family="sans-serif" font-size="15" stroke="none" fill="#000000"><![CDATA[UPID]]></text><text x="685" y="488" font-family="sans-serif" font-size="15" stroke="none" fill="#000000"><![CDATA[sopts]]></text><text x="695" y="166" font-family="sans-serif" font-size="15" stroke="none" fill="#000000"><![CDATA[srcs]]></text><text x="523" y="488" font-family="sans-serif" font-size="15" stroke="none" fill="#000000"><![CDATA[pdesc]]></text><text x="530" y="138" font-family="sans-serif" font-size="14" stroke="none" fill="#000000"><![CDATA[cmd]]></text><text x="528" y="740" font-family="sans-serif" font-size="15" stroke="none" fill="#000000"><![CDATA[plist]]></text></g></svg>